<svg xmlns="http://www.w3.org/2000/svg" viewBox="0 0 760 310" role="img" aria-labelledby="title desc">
  <title id="title">분류 트리의 검증 정확도와 비용 전후 CAGR</title><desc id="desc">폴드 정확도 평균 52.7퍼센트와 테스트 CAGR 비용 전 4.0퍼센트 비용 후 0.05퍼센트</desc>
  <style>text{font-family:"Noto Sans CJK KR","Apple SD Gothic Neo","Malgun Gothic","Noto Sans KR","NanumGothic",Inter,system-ui,sans-serif;fill:#172033}.axis{stroke:#7d8795}.grid{stroke:#e4e7eb}.bar{fill:#8da9c7}.gross{fill:#1b6b3a}.net{fill:#a3341f}.base{stroke:#a3341f;stroke-width:2;stroke-dasharray:5 4}.mean{stroke:#1b6b3a;stroke-width:2;stroke-dasharray:6 4}.title{font-size:15px;font-weight:700;text-anchor:middle}.tick{font-size:10px;fill:#667085;text-anchor:end}.lab{font-size:11px;text-anchor:middle}.val{font-size:11px;font-weight:700;text-anchor:middle}</style>
  <rect width="760" height="310" rx="14" fill="#fafaf9"/>
  <text class="title" x="230" y="27">시간순 검증 정확도</text><path class="axis" d="M50 250H414M50 48V250"/>
  <path class="base" d="M50 250H414"/><text class="tick" x="44" y="254">50%</text><text class="tick" x="44" y="187">52%</text><text class="tick" x="44" y="120">54%</text><text class="tick" x="44" y="53">56%</text>
  <rect class="bar" x="75" y="216" width="48" height="34"/><rect class="bar" x="140" y="58" width="48" height="192"/><rect class="bar" x="205" y="92" width="48" height="158"/><rect class="bar" x="270" y="216" width="48" height="34"/><rect class="bar" x="335" y="216" width="48" height="34"/>
  <text class="val" x="99" y="208">51.0</text><text class="val" x="164" y="50">55.7</text><text class="val" x="229" y="84">54.7</text><text class="val" x="294" y="208">51.0</text><text class="val" x="359" y="208">51.0</text>
  <text class="lab" x="99" y="270">1</text><text class="lab" x="164" y="270">2</text><text class="lab" x="229" y="270">3</text><text class="lab" x="294" y="270">4</text><text class="lab" x="359" y="270">5</text>
  <path class="mean" d="M50 159H414"/><text class="val" x="355" y="151">평균 52.7%</text>
  <text class="title" x="590" y="27">테스트 CAGR</text><path class="axis" d="M470 250H720M470 48V250"/><path class="grid" d="M470 149H720M470 48H720"/><text class="tick" x="462" y="254">0%</text><text class="tick" x="462" y="153">2%</text><text class="tick" x="462" y="52">4%</text>
  <rect class="gross" x="510" y="49.6" width="70" height="200.4" rx="4"/><rect class="net" x="625" y="247.3" width="70" height="2.7" rx="2"/>
  <text class="val" x="545" y="41">4.0%</text><text class="val" x="660" y="236">0.05%</text><text class="lab" x="545" y="273">비용 전</text><text class="lab" x="660" y="273">편도 2bp 후</text>
</svg>
