<svg xmlns="http://www.w3.org/2000/svg" viewBox="8 6 716 362" font-family="Noto Sans CJK KR,Apple SD Gothic Neo,Malgun Gothic,Noto Sans KR,NanumGothic,Inter,system-ui,sans-serif" role="img">
  <defs>
    <marker id="ah" markerWidth="9" markerHeight="9" refX="7" refY="3" orient="auto"><path d="M0,0 L7,3 L0,6 Z" fill="#0F2C59"/></marker>
    <marker id="ahr" markerWidth="9" markerHeight="9" refX="7" refY="3" orient="auto"><path d="M0,0 L7,3 L0,6 Z" fill="#A3341F"/></marker>
    <marker id="ahg" markerWidth="9" markerHeight="9" refX="7" refY="3" orient="auto"><path d="M0,0 L7,3 L0,6 Z" fill="#1B6B3A"/></marker>
    <style>
      .t{fill:#0F0F10;font-size:13px;font-weight:700;text-anchor:middle}
      .tl{fill:#0F0F10;font-size:12.5px;font-weight:700;text-anchor:start}
      .s{fill:#57534E;font-size:10.5px;text-anchor:middle}
      .sl{fill:#57534E;font-size:10.5px;text-anchor:start}
      .sr{fill:#57534E;font-size:10.5px;text-anchor:end}
      .lab{fill:#0F2C59;font-size:11.5px;font-weight:700;text-anchor:middle}
      .labl{fill:#0F2C59;font-size:11.5px;font-weight:700;text-anchor:start}
      .box{fill:#fff;stroke:#0F2C59;stroke-width:1.4}
      .key{fill:#0F2C59;stroke:#0F2C59}
      .tk{fill:#fff;font-size:13px;font-weight:700;text-anchor:middle}
      .sk{fill:#C7D2E6;font-size:10.5px;text-anchor:middle}
      .good{fill:#E8F1EA;stroke:#1B6B3A;stroke-width:1.4}
      .goodt{fill:#1B6B3A;font-size:11px;font-weight:700;text-anchor:middle}
      .warn{fill:#FBEFEA;stroke:#A3341F;stroke-width:1.4}
      .warnt{fill:#A3341F;font-size:11px;font-weight:700;text-anchor:middle}
      .muted{fill:#F3F1EC;stroke:#8A8377;stroke-width:1.3}
      .mutedt{fill:#6B6357;font-size:10.5px;font-weight:700;text-anchor:middle}
      .a{stroke:#0F2C59;stroke-width:1.4;fill:none;marker-end:url(#ah)}
      .ar{stroke:#A3341F;stroke-width:1.4;fill:none;marker-end:url(#ahr)}
      .ag{stroke:#1B6B3A;stroke-width:1.4;fill:none;marker-end:url(#ahg)}
      .plain{stroke:#0F2C59;stroke-width:1.3;fill:none}
      .axis{stroke:#8A8377;stroke-width:1.1;fill:none}
      .grid{stroke:#E7E5E4;stroke-width:1;fill:none}
      .ln{stroke:#0F2C59;stroke-width:2.2;fill:none;stroke-linejoin:round;stroke-linecap:round}
      .lnr{stroke:#A3341F;stroke-width:2.2;fill:none;stroke-linejoin:round;stroke-linecap:round}
      .lng{stroke:#1B6B3A;stroke-width:2.2;fill:none;stroke-linejoin:round;stroke-linecap:round}
      .lnthin{stroke:#9AA9C4;stroke-width:1.1;fill:none;stroke-linejoin:round}
      .dash{stroke:#8A8377;stroke-width:1.2;fill:none;stroke-dasharray:5 4}
      .band{fill:#0F2C59;opacity:.07}
      .bandr{fill:#A3341F;opacity:.09}
      .edge{fill:none;stroke:#0F2C59;stroke-width:1.3}
      .halo{paint-order:stroke fill;stroke:#FAFAF9;stroke-width:3.5px;stroke-linejoin:round}
    </style>
  </defs>
<text class="tl" x="14" y="22">학습셋을 K = 5개 부분집합으로 무작위 분할</text>
<text class="sr" x="140" y="64">모델 1</text>
<rect class="warn" x="150" y="40" width="92" height="34" rx="7"/>
<text class="warnt" x="196.0" y="61">검증용 1</text>
<rect class="muted" x="250" y="40" width="92" height="34" rx="7"/>
<text class="mutedt" x="296.0" y="61">학습 2</text>
<rect class="muted" x="350" y="40" width="92" height="34" rx="7"/>
<text class="mutedt" x="396.0" y="61">학습 3</text>
<rect class="muted" x="450" y="40" width="92" height="34" rx="7"/>
<text class="mutedt" x="496.0" y="61">학습 4</text>
<rect class="muted" x="550" y="40" width="92" height="34" rx="7"/>
<text class="mutedt" x="596.0" y="61">학습 5</text>
<text class="sr" x="140" y="112">모델 2</text>
<rect class="muted" x="150" y="88" width="92" height="34" rx="7"/>
<text class="mutedt" x="196.0" y="109">학습 1</text>
<rect class="warn" x="250" y="88" width="92" height="34" rx="7"/>
<text class="warnt" x="296.0" y="109">검증용 2</text>
<rect class="muted" x="350" y="88" width="92" height="34" rx="7"/>
<text class="mutedt" x="396.0" y="109">학습 3</text>
<rect class="muted" x="450" y="88" width="92" height="34" rx="7"/>
<text class="mutedt" x="496.0" y="109">학습 4</text>
<rect class="muted" x="550" y="88" width="92" height="34" rx="7"/>
<text class="mutedt" x="596.0" y="109">학습 5</text>
<text class="sr" x="140" y="160">모델 3</text>
<rect class="muted" x="150" y="136" width="92" height="34" rx="7"/>
<text class="mutedt" x="196.0" y="157">학습 1</text>
<rect class="muted" x="250" y="136" width="92" height="34" rx="7"/>
<text class="mutedt" x="296.0" y="157">학습 2</text>
<rect class="warn" x="350" y="136" width="92" height="34" rx="7"/>
<text class="warnt" x="396.0" y="157">검증용 3</text>
<rect class="muted" x="450" y="136" width="92" height="34" rx="7"/>
<text class="mutedt" x="496.0" y="157">학습 4</text>
<rect class="muted" x="550" y="136" width="92" height="34" rx="7"/>
<text class="mutedt" x="596.0" y="157">학습 5</text>
<text class="sr" x="140" y="208">모델 4</text>
<rect class="muted" x="150" y="184" width="92" height="34" rx="7"/>
<text class="mutedt" x="196.0" y="205">학습 1</text>
<rect class="muted" x="250" y="184" width="92" height="34" rx="7"/>
<text class="mutedt" x="296.0" y="205">학습 2</text>
<rect class="muted" x="350" y="184" width="92" height="34" rx="7"/>
<text class="mutedt" x="396.0" y="205">학습 3</text>
<rect class="warn" x="450" y="184" width="92" height="34" rx="7"/>
<text class="warnt" x="496.0" y="205">검증용 4</text>
<rect class="muted" x="550" y="184" width="92" height="34" rx="7"/>
<text class="mutedt" x="596.0" y="205">학습 5</text>
<text class="sr" x="140" y="256">모델 5</text>
<rect class="muted" x="150" y="232" width="92" height="34" rx="7"/>
<text class="mutedt" x="196.0" y="253">학습 1</text>
<rect class="muted" x="250" y="232" width="92" height="34" rx="7"/>
<text class="mutedt" x="296.0" y="253">학습 2</text>
<rect class="muted" x="350" y="232" width="92" height="34" rx="7"/>
<text class="mutedt" x="396.0" y="253">학습 3</text>
<rect class="muted" x="450" y="232" width="92" height="34" rx="7"/>
<text class="mutedt" x="496.0" y="253">학습 4</text>
<rect class="warn" x="550" y="232" width="92" height="34" rx="7"/>
<text class="warnt" x="596.0" y="253">검증용 5</text>
<text class="sl" x="150" y="298">각 행에서 붉은 조각은 그 모델의 학습에 한 번도 쓰이지 않는다 — 그래서 그 조각의 점수가 표본 외 성적에 가깝다.</text>
<path class="a" d="M636,60 L700,60 L700,255 L636,255"/>
<rect class="box key" x="238" y="316" width="330" height="42" rx="10"/>
<text class="tk" x="403" y="335">kfoldLoss 최소 → 트리 하나 선택</text>
<text class="sk" x="403" y="351">손실 = 예측 반응과 실제 반응의 평균제곱오차</text>
<path class="a" d="M700,255 L700,337 L568,337"/>
</svg>
