<svg xmlns="http://www.w3.org/2000/svg" viewBox="14 -6 706 336" font-family="Noto Sans CJK KR,Apple SD Gothic Neo,Malgun Gothic,Noto Sans KR,NanumGothic,Inter,system-ui,sans-serif" role="img">
  <defs>
    <marker id="ah" markerWidth="9" markerHeight="9" refX="7" refY="3" orient="auto"><path d="M0,0 L7,3 L0,6 Z" fill="#0F2C59"/></marker>
    <marker id="ahr" markerWidth="9" markerHeight="9" refX="7" refY="3" orient="auto"><path d="M0,0 L7,3 L0,6 Z" fill="#A3341F"/></marker>
    <marker id="ahg" markerWidth="9" markerHeight="9" refX="7" refY="3" orient="auto"><path d="M0,0 L7,3 L0,6 Z" fill="#1B6B3A"/></marker>
    <style>
      .t{fill:#0F0F10;font-size:13px;font-weight:700;text-anchor:middle}
      .tl{fill:#0F0F10;font-size:12.5px;font-weight:700;text-anchor:start}
      .s{fill:#57534E;font-size:10.5px;text-anchor:middle}
      .sl{fill:#57534E;font-size:10.5px;text-anchor:start}
      .sr{fill:#57534E;font-size:10.5px;text-anchor:end}
      .lab{fill:#0F2C59;font-size:11.5px;font-weight:700;text-anchor:middle}
      .labl{fill:#0F2C59;font-size:11.5px;font-weight:700;text-anchor:start}
      .box{fill:#fff;stroke:#0F2C59;stroke-width:1.4}
      .key{fill:#0F2C59;stroke:#0F2C59}
      .tk{fill:#fff;font-size:13px;font-weight:700;text-anchor:middle}
      .sk{fill:#C7D2E6;font-size:10.5px;text-anchor:middle}
      .good{fill:#E8F1EA;stroke:#1B6B3A;stroke-width:1.4}
      .goodt{fill:#1B6B3A;font-size:11px;font-weight:700;text-anchor:middle}
      .warn{fill:#FBEFEA;stroke:#A3341F;stroke-width:1.4}
      .warnt{fill:#A3341F;font-size:11px;font-weight:700;text-anchor:middle}
      .muted{fill:#F3F1EC;stroke:#8A8377;stroke-width:1.3}
      .mutedt{fill:#6B6357;font-size:10.5px;font-weight:700;text-anchor:middle}
      .a{stroke:#0F2C59;stroke-width:1.4;fill:none;marker-end:url(#ah)}
      .ar{stroke:#A3341F;stroke-width:1.4;fill:none;marker-end:url(#ahr)}
      .ag{stroke:#1B6B3A;stroke-width:1.4;fill:none;marker-end:url(#ahg)}
      .plain{stroke:#0F2C59;stroke-width:1.3;fill:none}
      .axis{stroke:#8A8377;stroke-width:1.1;fill:none}
      .grid{stroke:#E7E5E4;stroke-width:1;fill:none}
      .ln{stroke:#0F2C59;stroke-width:2.2;fill:none;stroke-linejoin:round;stroke-linecap:round}
      .lnr{stroke:#A3341F;stroke-width:2.2;fill:none;stroke-linejoin:round;stroke-linecap:round}
      .lng{stroke:#1B6B3A;stroke-width:2.2;fill:none;stroke-linejoin:round;stroke-linecap:round}
      .lnthin{stroke:#9AA9C4;stroke-width:1.1;fill:none;stroke-linejoin:round}
      .dash{stroke:#8A8377;stroke-width:1.2;fill:none;stroke-dasharray:5 4}
      .band{fill:#0F2C59;opacity:.07}
      .bandr{fill:#A3341F;opacity:.09}
      .edge{fill:none;stroke:#0F2C59;stroke-width:1.3}
      .halo{paint-order:stroke fill;stroke:#FAFAF9;stroke-width:3.5px;stroke-linejoin:round}
      .an-s{text-anchor:start}
      .an-m{text-anchor:middle}
      .an-e{text-anchor:end}
    </style>
  </defs>
<text class="sl" x="20" y="26">누적 수익</text>
<rect class="good" x="481.3" y="2" width="218.7" height="48" rx="9"/>
<text class="goodt an-m" x="590.7" y="22" style="font-size:12.4px">표본 외 CAGR 13.3% · 샤프 0.8</text>
<text class="goodt an-m" x="590.7" y="40" style="font-size:12.4px">이 장 SPY 실험 중 가장 좋다</text>
<path class="axis" d="M74,50 V250 H700"/>
<path class="grid" d="M74,202.0 H700"/>
<path class="grid" d="M74,154.0 H700"/>
<path class="grid" d="M74,106.0 H700"/>
<path class="grid" d="M74,58.0 H700"/>
<text class="sr an-e" x="66" y="254">0</text>
<text class="sr an-e" x="66" y="62.0">누적</text>
<path class="axis" d="M74.0,250 v5"/>
<text class="s an-m" x="74.0" y="270">2009-09</text>
<path class="axis" d="M280.6,250 v5"/>
<text class="s an-m" x="280.6" y="270">2011-03</text>
<path class="axis" d="M487.2,250 v5"/>
<text class="s an-m" x="487.2" y="270">2012-11</text>
<path class="axis" d="M700.0,250 v5"/>
<text class="s an-m" x="700.0" y="270">2014-06</text>
<path d="M74.0,244.2 L124.1,225.0 L174.2,211.6 L230.5,190.5 L280.6,177.0 L336.9,159.8 L387.0,148.2 L437.1,129.0 L487.2,117.5 L543.5,100.2 L593.6,90.6 L649.9,77.2 L700.0,65.7 L700.0,250 L74,250 Z" fill="#0F2C59" opacity=".10"/>
<rect class="band" x="524.7" y="50" width="175.3" height="200.0"/>
<path class="ln" d="M74.0,244.2 L124.1,225.0 L174.2,211.6 L230.5,190.5 L280.6,177.0 L336.9,159.8 L387.0,148.2 L437.1,129.0 L487.2,117.5 L543.5,100.2 L593.6,90.6 L649.9,77.2 L700.0,65.7"/>
<text class="lab an-m halo" x="594.0" y="72">최근 구간에도 꺾이지 않는다</text>
<text class="sl" x="20" y="296">기본 SVM 이 만드는 모델은 초평면 하나, 즉 진짜 선형이라 과적합을 피한다.</text>
<text class="sl" x="20" y="314">같은 이유로 학습셋 성적은 오히려 더 나쁘다 — 선형 모델의 전형적인 거래다.</text>
</svg>
