<svg xmlns="http://www.w3.org/2000/svg" viewBox="0 0 760 475" role="img"><style>text{font-family:'Noto Sans CJK KR', 'Apple SD Gothic Neo', 'Malgun Gothic',
    'Noto Sans KR', NanumGothic, Inter, system-ui, sans-serif;font-size:22px;fill:#0F2C59;text-anchor:middle}.small{font-size:18px}</style><defs><marker id="arrow" viewBox="0 0 10 10" refX="10" refY="5" markerWidth="8" markerHeight="8" orient="auto-start-reverse"><path d="M 0 0 L 10 5 L 0 10 z" fill="#0F2C59"/></marker></defs><rect width="760" height="475" fill="#fafaf9"/><rect x="40" y="30" width="290" height="80" rx="10" fill="#e8eef5" stroke="#0F2C59" stroke-width="1.5"/><text x="185.0" y="77.0" class="">문제·데이터 이해</text><rect x="410" y="30" width="290" height="80" rx="10" fill="#e8eef5" stroke="#0F2C59" stroke-width="1.5"/><text x="555.0" y="77.0" class="">데이터 준비</text><rect x="410" y="165" width="290" height="80" rx="10" fill="#e8eef5" stroke="#0F2C59" stroke-width="1.5"/><text x="555.0" y="212.0" class="">모델링</text><rect x="40" y="165" width="290" height="80" rx="10" fill="#e8eef5" stroke="#0F2C59" stroke-width="1.5"/><text x="185.0" y="212.0" class="">평가</text><rect x="40" y="300" width="290" height="80" rx="10" fill="#e8eef5" stroke="#0F2C59" stroke-width="1.5"/><text x="185.0" y="347.0" class="">배포</text><rect x="410" y="300" width="290" height="80" rx="10" fill="#e8eef5" stroke="#0F2C59" stroke-width="1.5"/><text x="555.0" y="347.0" class="">감시·유지보수</text><path d="M330 70 H410" fill="none" stroke="#0F2C59" stroke-width="2.4" marker-end="url(#arrow)"/><text x="370" y="56" class="small">QA</text><path d="M555 110 V165" fill="none" stroke="#0F2C59" stroke-width="2.4" marker-end="url(#arrow)"/><text x="592" y="145" class="small">QA</text><path d="M410 205 H330" fill="none" stroke="#0F2C59" stroke-width="2.4" marker-end="url(#arrow)"/><text x="370" y="191" class="small">QA</text><path d="M185 245 V300" fill="none" stroke="#0F2C59" stroke-width="2.4" marker-end="url(#arrow)"/><text x="221" y="281" class="small">QA</text><path d="M330 340 H410" fill="none" stroke="#0F2C59" stroke-width="2.4" marker-end="url(#arrow)"/><text x="370" y="325" class="small">QA</text><path d="M700 340 H730 V205 H700" fill="none" stroke="#0F2C59" stroke-width="2.4" marker-end="url(#arrow)" stroke-dasharray="7 5"/><text x="665" y="280" class="small">갱신</text><path d="M555 380 V445 H15 V70 H40" fill="none" stroke="#0F2C59" stroke-width="2.4" marker-end="url(#arrow)" stroke-dasharray="7 5"/><text x="320" y="434" class="small">범위 재설정</text></svg>